<?xml version="1.0" encoding="UTF-8"?>
<svg width="30px" height="30px" viewBox="0 0 30 30" version="1.1" xmlns="http://www.w3.org/2000/svg" xmlns:xlink="http://www.w3.org/1999/xlink">
    <title>ic/ic_burger_blue</title>
    <g id="ic/ic_burger_blue" stroke="none" stroke-width="1" fill="none" fill-rule="evenodd">
        <g id="@ic/30/nav/ic_burger" fill="#32AAFF">
            <path d="M20,20 C20.5522847,20 21,20.4477153 21,21 C21,21.5522847 20.5522847,22 20,22 L10,22 C9.44771525,22 9,21.5522847 9,21 C9,20.4477153 9.44771525,20 10,20 L20,20 Z M24,14 C24.5522847,14 25,14.4477153 25,15 C25,15.5522847 24.5522847,16 24,16 L6,16 C5.44771525,16 5,15.5522847 5,15 C5,14.4477153 5.44771525,14 6,14 L24,14 Z M20,8 C20.5522847,8 21,8.44771525 21,9 C21,9.55228475 20.5522847,10 20,10 L10,10 C9.44771525,10 9,9.55228475 9,9 C9,8.44771525 9.44771525,8 10,8 L20,8 Z" id="Combined-Shape"></path>
        </g>
    </g>
</svg>