<?xml version="1.0" encoding="UTF-8"?>
<svg width="70px" height="70px" viewBox="0 0 70 70" version="1.1" xmlns="http://www.w3.org/2000/svg" xmlns:xlink="http://www.w3.org/1999/xlink">
    <title>ic/ic_call</title>
    <g id="ic/ic_call" stroke="none" stroke-width="1" fill="none" fill-rule="evenodd">
        <g id="1034134" transform="translate(9.000000, 9.000000)" fill="#666666" fill-rule="nonzero">
            <path d="M50.6354972,40.2297755 L40.1105079,33.1904493 C38.774854,32.3043212 36.9844706,32.5958951 35.997023,33.8604685 L32.9312032,37.8137753 C32.5368944,38.334494 31.8210863,38.4855258 31.2509988,38.1683895 L30.6678116,37.8459574 C28.7345509,36.7891419 26.3290944,35.4734438 21.4825382,30.6110944 C16.635982,25.748745 15.32145,23.3344761 14.2676919,21.3991706 L13.9479189,20.8142914 C13.6269273,20.2427535 13.7747804,19.5214059 14.2945004,19.1231014 L18.2337299,16.0493031 C19.4941371,15.0588886 19.7852737,13.2638197 18.9027247,11.9238831 L11.8837634,1.36835649 C10.9792801,0.00387599228 9.16462677,-0.405732948 7.76438869,0.438436248 L3.36321972,3.08989541 C1.98034625,3.90524329 0.965785457,5.225728 0.5322793,6.77464455 C-1.05257209,12.5659976 0.139696775,22.5609853 14.8206179,37.2862332 C26.4989833,48.9975659 35.1929701,52.1471742 41.1686326,52.1471742 C42.54389,52.1529398 43.9137654,51.973494 45.241397,51.6134822 C46.7861372,51.1792274 48.1030048,50.1616211 48.9154861,48.774328 L51.5619148,44.3630373 C52.4048603,42.958431 51.9966395,41.1373924 50.6354972,40.2297755 Z M50.0687608,43.4713078 L47.4284249,47.8852464 C46.8450347,48.886558 45.8979014,49.6227746 44.7854489,49.9397072 C39.4545113,51.4075574 30.1409834,50.1917664 16.046702,36.0565917 C1.95242069,21.9214169 0.740248523,12.5816813 2.20385223,7.23446165 C2.52027415,6.11745746 3.25527475,5.16635406 4.25490807,4.58035459 L8.65607704,1.93235806 C9.26363556,1.56572649 10.0512377,1.74344096 10.4437187,2.33555095 L14.2565216,8.07649216 L17.4566887,12.890161 C17.8399288,13.4713739 17.71401,14.2503642 17.1672784,14.6804434 L13.2271349,17.7542417 C12.0280624,18.6737741 11.6856443,20.3375685 12.4238944,21.6580532 L12.7367622,22.2281653 C13.8442389,24.2652111 15.2211211,26.7993481 20.247924,31.8399212 C25.274727,36.8803924 27.8007203,38.2613714 29.8309589,39.3719595 L30.4002341,39.6865498 C31.716797,40.42684 33.3758796,40.0835303 34.2927517,38.8809787 L37.3576575,34.9294033 C37.7865941,34.3813909 38.563026,34.2552085 39.1427605,34.6391533 L49.6668359,41.6784795 C50.2576391,42.0717937 50.4348394,42.8620884 50.0687608,43.4713078 Z" id="Shape"></path>
            <path d="M35.5909137,23.8857535 L39.0454315,23.8857535 L39.0454315,28.2162432 C39.0455328,28.5665026 39.2559433,28.8822538 39.578593,29.0162273 C39.9012427,29.1502007 40.2726745,29.0762108 40.519621,28.8285629 L45.4484294,23.8857535 L49.4090863,23.8857535 C50.8399589,23.8857535 52,22.7225186 52,21.28748 L52,12.6266021 C52,11.191665 50.8400601,10.0283286 49.4090863,10.0283286 L35.5909137,10.0283286 C34.1600411,10.0283286 33,11.1915635 33,12.6266021 L33,21.28748 C33,22.7224171 34.1599399,23.8857535 35.5909137,23.8857535 Z M34.7271071,12.6265006 C34.7271071,12.1481544 35.1138212,11.7604433 35.5908125,11.7604433 L49.4089851,11.7604433 C49.8859764,11.7604433 50.2725893,12.1481544 50.2725893,12.6265006 L50.2725893,21.2873785 C50.2725893,21.7657247 49.8859764,22.1534358 49.4089851,22.1534358 L45.0907619,22.1534358 C44.8617292,22.1534358 44.6421087,22.2447814 44.4801766,22.4071735 L40.7725387,26.1253435 L40.7725387,23.0194932 C40.7725387,22.541147 40.3858245,22.1534358 39.9089345,22.1534358 L35.5907113,22.1534358 C35.11372,22.1534358 34.7271071,21.7656232 34.7271071,21.2873785 L34.7271071,12.6265006 L34.7271071,12.6265006 Z" id="Shape"></path>
            <path d="M36.8571142,18.0509915 L41.1428858,18.0509915 C41.6162925,18.0509915 42,17.6020496 42,17.0481586 C42,16.4942677 41.6162925,16.0453258 41.1428858,16.0453258 L36.8571142,16.0453258 C36.3837075,16.0453258 36,16.4942677 36,17.0481586 C36,17.6020496 36.3837075,18.0509915 36.8571142,18.0509915 Z" id="Path"></path>
            <path d="M44.9999766,18.0509915 L48.0000234,18.0509915 C48.5523368,18.0509915 49,17.6020496 49,17.0481586 C49,16.4942677 48.5523368,16.0453258 48.0000234,16.0453258 L44.9999766,16.0453258 C44.4476632,16.0453258 44,16.4942677 44,17.0481586 C44,17.6020496 44.4476632,18.0509915 44.9999766,18.0509915 Z" id="Path"></path>
        </g>
    </g>
</svg>