<?xml version="1.0" encoding="UTF-8"?>
<svg width="60px" height="60px" viewBox="0 0 60 60" version="1.1" xmlns="http://www.w3.org/2000/svg" xmlns:xlink="http://www.w3.org/1999/xlink">
    <title>ic/ic_donate</title>
    <g id="ic/ic_donate" stroke="none" stroke-width="1" fill="none" fill-rule="evenodd">
        <g id="Group-9" transform="translate(16.000000, 10.000000)">
            <path d="M15.7,11.1111111 L13.3,11.1111111 C12.4715729,11.1111111 11.8,10.4478293 11.8,9.62962963 C11.8,8.81143 12.4715729,8.14814815 13.3,8.14814815 L16.3,8.14814815 C16.7968335,8.14867888 17.1994626,8.54633726 17.2,9.03703704 C17.2,9.52795679 17.6029437,9.92592587 18.1,9.92592587 C18.5970563,9.92592587 19,9.52795679 19,9.03703704 C18.9983467,7.56495462 17.7904835,6.3720033 16.3,6.37037037 L15.4,6.37037037 L15.4,4.88888889 C15.4,4.39796911 14.9970563,4 14.5,4 C14.0029437,4 13.6,4.39796911 13.6,4.88888889 L13.6,6.37037037 L13.3,6.37037037 C11.4774603,6.37037037 10,7.82959044 10,9.62962963 C10,11.4296688 11.4774603,12.8888889 13.3,12.8888889 L15.7,12.8888889 C16.5284271,12.8888889 17.2,13.5521707 17.2,14.3703704 C17.2,15.18857 16.5284271,15.8518519 15.7,15.8518519 L12.7,15.8518519 C12.2031665,15.8513211 11.8005374,15.4536627 11.8,14.962963 C11.8,14.4720432 11.3970563,14.0740741 10.9,14.0740741 C10.4029437,14.0740741 10,14.4720432 10,14.962963 C10.0016533,16.4350454 11.2095165,17.6279967 12.7,17.6296296 L13.6,17.6296296 L13.6,19.1111111 C13.6,19.6020309 14.0029437,20 14.5,20 C14.9970563,20 15.4,19.6020309 15.4,19.1111111 L15.4,17.6296296 L15.7,17.6296296 C17.5225397,17.6296296 19,16.1704096 19,14.3703704 C19,12.5703312 17.5225397,11.1111111 15.7,11.1111111 Z" id="Path" fill="#999999" fill-rule="nonzero"></path>
            <g id="validating-ticket" fill="#999999" fill-rule="nonzero" stroke="#999999">
                <path d="M28.4259699,0 L0.574030087,0 C0.257002024,0 0,0.254973071 0,0.569498294 L0,5.74151909 C0,6.05604431 0.257002024,6.31101738 0.574030087,6.31101738 C0.89105815,6.31101738 1.14806017,6.05604431 1.14806017,5.74151909 L1.14806017,1.13899659 L27.8519398,1.13899659 L27.8519398,27.3805017 C27.8519398,27.6950269 28.1089418,27.95 28.4259699,27.95 C28.742998,27.95 29,27.6950269 29,27.3805017 L29,0.569498294 C29,0.254973071 28.742998,0 28.4259699,0 Z M28.45,29.000375 C28.1462434,29.000375 27.9,29.2941514 27.9,29.6565429 L27.9,31.343832 C27.9,31.7062236 28.1462434,32 28.45,32 C28.7537566,32 29,31.7062236 29,31.343832 L29,29.6565429 C29,29.2940907 28.7538074,29.000207 28.45,29 L28.45,29.000375 Z M28.4259179,34.0554615 C28.1088611,34.0554615 27.8518358,34.3118995 27.8518358,34.6282317 L27.8518358,37.0440131 L26.047578,35.2438779 C25.8234179,35.0203878 25.4601502,35.0203878 25.23599,35.2438779 L22.856338,37.6180925 L20.476686,35.2438779 C20.2525258,35.0203878 19.8892582,35.0203878 19.665098,35.2438779 L17.285446,37.6180925 L14.905794,35.2438779 C14.6816338,35.0203878 14.3183662,35.0203878 14.094206,35.2438779 L11.714554,37.6180925 L9.33490197,35.2438779 C9.11074181,35.0203878 8.74747416,35.0203878 8.523314,35.2438779 L6.14366198,37.6180925 L3.76400995,35.2438779 C3.5398498,35.0203878 3.17658214,35.0203878 2.95242199,35.2438779 L1.14816418,37.0440131 L1.14816418,8.37277026 C1.14816418,8.05643798 0.8911389,7.8 0.574082149,7.8 C0.257025399,7.8 0,8.05643798 0,8.37277026 L0,38.4255349 C0,38.6573134 0.139722866,38.8663358 0.354340373,38.9550538 C0.568957879,39.0437718 0.816011477,38.9946958 0.98020418,38.830729 L3.35952816,36.4565144 L5.73918018,38.830729 C5.96345286,39.0542566 6.32682352,39.0542566 6.55109619,38.830729 L8.93042017,36.4565144 L11.3100722,38.830729 C11.5343449,39.0542566 11.8977155,39.0542566 12.1219882,38.830729 L14.4986878,36.4578236 L16.8783398,38.8320382 C17.1026125,39.0555658 17.4659832,39.0555658 17.6902559,38.8320382 L20.0695798,36.4581509 L22.4489038,38.8320382 C22.6731765,39.0555658 23.0365471,39.0555658 23.2608198,38.8320382 L25.6404718,36.4578236 L28.0197958,38.8320382 C28.1839885,38.996005 28.4310421,39.045081 28.6456596,38.956363 C28.8602771,38.867645 29,38.6586226 29,38.4268441 L29,34.6282317 C29,34.3119743 28.7428996,34.055642 28.4259179,34.0554615 L28.4259179,34.0554615 Z" id="Shape"></path>
            </g>
            <rect id="Rectangle" fill="#FF4C4C" x="5" y="25" width="5" height="1.5" rx="0.75"></rect>
            <rect id="Rectangle-Copy-3" fill="#FF4C4C" x="5" y="28" width="5" height="1.5" rx="0.75"></rect>
            <rect id="Rectangle-Copy-2" fill="#FF4C4C" x="12" y="25" width="12" height="1.5" rx="0.75"></rect>
            <rect id="Rectangle-Copy-4" fill="#FF4C4C" x="12" y="28" width="12" height="1.5" rx="0.75"></rect>
        </g>
    </g>
</svg>