<?xml version="1.0" encoding="UTF-8"?>
<svg width="22px" height="22px" viewBox="0 0 22 22" version="1.1" xmlns="http://www.w3.org/2000/svg" xmlns:xlink="http://www.w3.org/1999/xlink">
    <title>ic/ic_fb_outline</title>
    <g id="ic/ic_fb_outline" stroke="none" stroke-width="1" fill="none" fill-rule="evenodd">
        <g id="facebook-(1)" fill="#666666" fill-rule="nonzero">
            <path d="M19.421875,0 L2.578125,0 C1.15654688,0 0,1.15654688 0,2.578125 L0,19.421875 C0,20.8434531 1.15654688,22 2.578125,22 L19.421875,22 C20.8434531,22 22,20.8434531 22,19.421875 L22,2.578125 C22,1.15654688 20.8434531,0 19.421875,0 Z M20.28125,19.421875 C20.28125,19.8957344 19.8957344,20.28125 19.421875,20.28125 L14.5234375,20.28125 L14.5234375,13.2773438 L17.1784766,13.2773438 L17.6171875,10.6132812 L14.5234375,10.6132812 L14.5234375,8.765625 C14.5234375,8.03623047 15.0831055,7.4765625 15.8125,7.4765625 L17.5742188,7.4765625 L17.5742188,4.8125 L15.8125,4.8125 C13.6244023,4.8125 11.8603203,6.58496094 11.8603203,8.77310156 L11.8603203,10.6132812 L9.28125,10.6132812 L9.28125,13.2773438 L11.8603203,13.2773438 L11.8603203,20.28125 L2.578125,20.28125 C2.10426563,20.28125 1.71875,19.8957344 1.71875,19.421875 L1.71875,2.578125 C1.71875,2.10426563 2.10426563,1.71875 2.578125,1.71875 L19.421875,1.71875 C19.8957344,1.71875 20.28125,2.10426563 20.28125,2.578125 L20.28125,19.421875 Z" id="Shape"></path>
        </g>
    </g>
</svg>