<?xml version="1.0" encoding="UTF-8"?>
<svg width="22px" height="22px" viewBox="0 0 22 22" version="1.1" xmlns="http://www.w3.org/2000/svg" xmlns:xlink="http://www.w3.org/1999/xlink">
    <title>ic/ic_ig_outline</title>
    <g id="ic/ic_ig_outline" stroke="none" stroke-width="1" fill="none" fill-rule="evenodd">
        <g id="instagram-sketched-(1)" transform="translate(0.000000, 0.000000)" fill="#666666" fill-rule="nonzero">
            <path d="M21.9440853,6.48640308 C21.8925363,5.31414329 21.7034674,4.50822521 21.4326253,3.80988638 C21.1532197,3.06861683 20.7233649,2.40495919 20.1601881,1.85325802 C19.6099404,1.29297071 18.9436655,0.857603252 18.2129125,0.581836821 C17.5123835,0.310279311 16.7127865,0.120710927 15.5436151,0.0690257587 C14.3657124,0.0129633675 13.9917723,0 11.0042818,0 C8.01679121,0 7.64285114,0.0129633675 6.46931408,0.0646485357 C5.30014272,0.116333704 4.49634789,0.306070389 3.80001676,0.577459598 C3.06053229,0.857603252 2.39862311,1.28859349 1.84837545,1.85325802 C1.28956427,2.40495919 0.85551168,3.07299405 0.580303921,3.80567746 C0.309461853,4.50822521 0.120392903,5.30976607 0.0688439043,6.48202585 C0.0129292143,7.66304009 0,8.03796793 0,11.0333501 C0,14.0287322 0.0129292143,14.4036601 0.0644782134,15.5802971 C0.116027213,16.7525569 0.30526402,17.558475 0.576106088,18.2568138 C0.85551168,18.9980833 1.28956427,19.661741 1.84837545,20.2134421 C2.39862311,20.7737295 3.06489798,21.2090969 3.79565107,21.4848633 C4.49634789,21.7564209 5.29577703,21.9459892 6.46511625,21.9976744 C7.63848545,22.0495279 8.01259337,22.0623229 11.0000839,22.0623229 C13.9875745,22.0623229 14.3615146,22.0495279 15.5350516,21.9976744 C16.704223,21.9459892 17.5080178,21.7564209 18.2043489,21.4848633 C19.68315,20.9116127 20.8523214,19.7393529 21.4240618,18.2568138 C21.694736,17.554266 21.8839728,16.7525569 21.9355218,15.5802971 C21.9870708,14.4036601 22,14.0287322 22,11.0333501 C22,8.03796793 21.9956343,7.66304009 21.9440853,6.48640308 Z M19.9625556,15.494099 C19.9152044,16.5715746 19.734699,17.1534115 19.5842498,17.5413027 C19.2145076,18.5024446 18.4536983,19.2652636 17.4950886,19.6359825 C17.1082193,19.7868291 16.5237175,19.9678114 15.4532785,20.0151193 C14.2926706,20.0669728 13.944589,20.0797679 11.0086475,20.0797679 C8.0727059,20.0797679 7.72025857,20.0669728 6.56384856,20.0151193 C5.48921167,19.9678114 4.90890775,19.7868291 4.52203846,19.6359825 C4.0450004,19.4592092 3.61077995,19.1790656 3.25833262,18.8127239 C2.89295608,18.4549683 2.61355049,18.0239781 2.4372429,17.5456799 C2.28679373,17.1577887 2.10628831,16.5715746 2.059105,15.4984763 C2.00738814,14.3348026 1.99462678,13.9856332 1.99462678,11.0419362 C1.99462678,8.09823925 2.00738814,7.74486091 2.059105,6.58556449 C2.10628831,5.5080889 2.28679373,4.92625208 2.4372429,4.53836086 C2.61355049,4.05989438 2.89295608,3.62469522 3.26269832,3.27114858 C3.61934348,2.90480688 4.04919823,2.62466323 4.52640416,2.44805821 C4.91327344,2.29721163 5.49794305,2.11622939 6.56821425,2.06875314 C7.72882209,2.01706797 8.07707159,2.00410461 11.0128453,2.00410461 C13.9531525,2.00410461 14.3012342,2.01706797 15.4576442,2.06875314 C16.5322811,2.11622939 17.112585,2.29721163 17.4994543,2.44805821 C17.9764923,2.62466323 18.4107128,2.90480688 18.7631601,3.27114858 C19.1285367,3.62890414 19.4079422,4.05989438 19.5842498,4.53836086 C19.734699,4.92625208 19.9152044,5.51229782 19.9625556,6.58556449 C20.0141046,7.74923813 20.0270338,8.09823925 20.0270338,11.0419362 C20.0270338,13.9856332 20.0141046,14.3304254 19.9625556,15.494099 Z" id="Shape"></path>
            <path d="M11.5,6.01699717 C8.4635961,6.01699717 6,8.4874085 6,11.5325779 C6,14.5777473 8.4635961,17.0481586 11.5,17.0481586 C14.5365672,17.0481586 17,14.5777473 17,11.5325779 C17,8.4874085 14.5365672,6.01699717 11.5,6.01699717 Z M11.5,15.110398 C9.53013602,15.110398 7.93228673,13.508186 7.93228673,11.5325779 C7.93228673,9.55696978 9.53013602,7.95475779 11.5,7.95475779 C13.4700273,7.95475779 15.0677133,9.55696978 15.0677133,11.5325779 C15.0677133,13.508186 13.4700273,15.110398 11.5,15.110398 L11.5,15.110398 Z" id="Shape"></path>
            <path d="M18,5.01416431 C18,5.56796181 17.5522616,6.01699717 16.9999364,6.01699717 C16.4477384,6.01699717 16,5.56796181 16,5.01416431 C16,4.46023921 16.4477384,4.01133144 16.9999364,4.01133144 C17.5522616,4.01133144 18,4.46023921 18,5.01416431 L18,5.01416431 Z" id="Path"></path>
        </g>
    </g>
</svg>