<?xml version="1.0" encoding="UTF-8"?>
<svg width="130px" height="32px" viewBox="0 0 130 32" version="1.1" xmlns="http://www.w3.org/2000/svg" xmlns:xlink="http://www.w3.org/1999/xlink">
    <title>ic/ic_logo_1177</title>
    <defs>
        <linearGradient x1="66.6020752%" y1="97.2427528%" x2="66.6020752%" y2="4.30266662%" id="linearGradient-1">
            <stop stop-color="#242666" offset="0%"></stop>
            <stop stop-color="#32AAFF" offset="100%"></stop>
        </linearGradient>
    </defs>
    <g id="ic/ic_logo_1177" stroke="none" stroke-width="1" fill="none" fill-rule="evenodd">
        <g id="1177/pay/img_logo_noti_n" transform="translate(2.000000, 4.000000)">
            <g id="Group-2" transform="translate(1.041667, 0.520833)">
                <path d="M36.3776963,0.0239583333 C37.316375,0.0239583333 37.8342666,0.541458333 37.8342666,1.47942708 L37.8342666,3.67880208 C37.8342666,4.39036458 37.7047937,4.87552083 37.3811114,5.49005208 L28.2209023,22.9233333 C27.8324835,23.6348958 27.3145918,23.9583333 26.5053861,23.9583333 L23.5275089,23.9583333 C22.3622526,23.9583333 21.9414656,23.2467708 22.4917255,22.2117708 L31.4900935,5.36067708 L23.3656678,5.36067708 C22.4269891,5.36067708 21.9090974,4.84317708 21.9090974,3.90520833 L21.9090974,1.47942708 C21.9090974,0.541458333 22.4269891,0.0239583333 23.3656678,0.0239583333 L36.3776963,0.0239583333 Z M15.8253748,0 C16.4869659,4.66078629e-16 17.0232914,0.53632556 17.0232914,1.19791667 L17.0232914,22.7604167 C17.0232914,23.4220078 16.4869659,23.9583333 15.8253748,23.9583333 L12.1072091,23.9583333 C11.445618,23.9583333 10.9092924,23.4220078 10.9092924,22.7604167 L10.9092924,1.19791667 C10.9092924,0.53632556 11.445618,-9.8869071e-16 12.1072091,0 L15.8253748,0 Z M4.91608237,0 C5.57767347,4.66078629e-16 6.11399903,0.53632556 6.11399903,1.19791667 L6.11399903,22.7604167 C6.11399903,23.4220078 5.57767347,23.9583333 4.91608237,23.9583333 L1.19791667,23.9583333 C0.53632556,23.9583333 3.03373247e-14,23.4220078 2.84217094e-14,22.7604167 L2.84217094e-14,1.19791667 C2.81186433e-14,0.53632556 0.53632556,-9.8869071e-16 1.19791667,0 L4.91608237,0 Z M57.1889705,0.0239583333 C58.1276492,0.0239583333 58.6455408,0.541458333 58.6455408,1.47942708 L58.6455408,3.67880208 C58.6455408,4.39036458 58.5160679,4.87552083 58.1923856,5.49005208 L49.0321765,22.9233333 C48.6437577,23.6348958 48.125866,23.9583333 47.3166603,23.9583333 L44.3387831,23.9583333 C43.1735268,23.9583333 42.7527398,23.2467708 43.3029997,22.2117708 L52.3013677,5.36067708 L44.176942,5.36067708 C43.2382633,5.36067708 42.7203716,4.84317708 42.7203716,3.90520833 L42.7203716,1.47942708 C42.7203716,0.541458333 43.2382633,0.0239583333 44.176942,0.0239583333 L57.1889705,0.0239583333 Z" id="Combined-Shape" fill="#32AAFF" fill-rule="nonzero"></path>
                <g id="Group" transform="translate(64.616578, 0.000000)" fill-rule="nonzero">
                    <path d="M1.55847034,23.9583333 C0.619791667,23.9583333 0,23.3390104 0,22.4010417 L0,11.8615695 C0.000306554377,11.0016208 0.697342978,10.3044471 1.55729164,10.3039713 L11.1490571,10.3020833 L11.1490571,10.3020833 C12.3478804,10.3020833 12.9472921,9.50347222 12.9472921,7.90625 C12.9472921,6.30902778 12.3478804,5.51041667 11.1490571,5.51041667 L1.55729167,5.51041667 C0.697223228,5.51041667 -7.82850414e-16,4.81319344 0,3.953125 L0,1.55729167 L0,1.55729167 C0,0.619322917 0.619791667,0 1.55847034,0 L11.2689394,0 C13.3081379,0 15.1159635,0.61453125 16.4754292,1.81125 C17.5435808,2.7815625 18.8215264,4.96296875 18.8215264,7.90625 C18.8215264,10.2673438 18.1717642,12.6248438 16.4238798,14.015625 C14.9996776,15.1476562 13.3081379,15.8125 11.2689394,15.8125 L6.11399903,15.8125 L6.11399903,22.4010417 C6.11399903,23.3390104 5.49420737,23.9583333 4.55552869,23.9583333 L1.55847034,23.9583333 Z" id="Path" fill="#242666"></path>
                    <path d="M18.8215264,7.90625 C18.8215264,8.71846625 18.7446362,9.53025723 18.572604,10.3024164 L11.1490571,10.3020833 C12.3444982,10.3020833 12.9472921,9.16765625 12.9472921,7.90625 C12.9472921,6.8065625 12.3444982,5.51041667 11.1490571,5.51041667 L18.5256631,5.51024485 C18.7101452,6.23480512 18.8215264,7.03732639 18.8215264,7.90625 Z" id="Combined-Shape" fill="url(#linearGradient-1)"></path>
                </g>
                <path d="M95.5911726,-4.68958206e-13 C96.4651148,-4.68958206e-13 96.9830065,0.388125 97.2743206,1.164375 L104.654277,22.2525 C105.010328,23.2875 104.557172,23.934375 103.456653,23.934375 L99.9932519,23.934375 C99.1193097,23.934375 98.601418,23.54625 98.3424722,22.7376562 L97.2419523,19.5032812 L90.3475193,19.5032812 L89.2146313,22.7376562 C88.9233172,23.54625 88.4054255,23.934375 87.5314833,23.934375 L84.0357144,23.934375 C82.9351946,23.934375 82.4820394,23.2875 82.8380899,22.2525 L90.2504146,1.164375 C90.5417287,0.388125 91.0596204,-4.68958206e-13 91.9011944,-4.68958206e-13 L95.5911726,-4.68958206e-13 Z M108.508195,0 C109.285033,0 109.835293,0.29109375 110.25608,0.9703125 L113.622375,6.37171875 L116.988671,0.9703125 C117.409458,0.29109375 117.959718,0 118.736556,0 L122.588375,0 C123.786,0 124.206787,0.74390625 123.559422,1.7465625 L116.697357,12.808125 L116.697357,22.4789063 C116.697357,23.416875 116.179466,23.934375 115.240787,23.934375 L112.036332,23.934375 C111.097654,23.934375 110.579762,23.416875 110.579762,22.4789063 L110.579762,12.808125 L103.685329,1.7465625 C103.070332,0.74390625 103.458751,0 104.656376,0 L108.508195,0 Z M93.7461835,7.85953125 L91.6098803,14.49 L96.1090643,14.49 L93.7461835,7.85953125 Z" id="Combined-Shape" fill="#242666" fill-rule="nonzero"></path>
            </g>
        </g>
    </g>
</svg>