<?xml version="1.0" encoding="UTF-8"?>
<svg width="60px" height="60px" viewBox="0 0 60 60" version="1.1" xmlns="http://www.w3.org/2000/svg" xmlns:xlink="http://www.w3.org/1999/xlink">
    <title>ic/ic_mobilepay</title>
    <g id="ic/ic_mobilepay" stroke="none" stroke-width="1" fill="none" fill-rule="evenodd">
        <rect id="Rectangle" stroke="#999999" stroke-width="2" x="17" y="11" width="27" height="38" rx="5"></rect>
        <path d="M31.6,28.3333333 L28.4,28.3333333 C27.2954305,28.3333333 26.4,27.4627759 26.4,26.3888889 C26.4,25.3150019 27.2954305,24.4444444 28.4,24.4444444 L32.4,24.4444444 C33.0624447,24.445141 33.5992835,24.9670677 33.6,25.6111111 C33.6,26.2554433 34.1372583,26.7777777 34.8,26.7777777 C35.4627417,26.7777777 36,26.2554433 36,25.6111111 C35.9977955,23.6790029 34.3873113,22.1132543 32.4,22.1111111 L31.2,22.1111111 L31.2,20.1666667 C31.2,19.5223345 30.6627417,19 30,19 C29.3372583,19 28.8,19.5223345 28.8,20.1666667 L28.8,22.1111111 L28.4,22.1111111 C25.9699471,22.1111111 24,24.0263375 24,26.3888889 C24,28.7514403 25.9699471,30.6666667 28.4,30.6666667 L31.6,30.6666667 C32.7045695,30.6666667 33.6,31.5372241 33.6,32.6111111 C33.6,33.6849981 32.7045695,34.5555556 31.6,34.5555556 L27.6,34.5555556 C26.9375553,34.554859 26.4007165,34.0329323 26.4,33.3888889 C26.4,32.7445567 25.8627417,32.2222222 25.2,32.2222222 C24.5372583,32.2222222 24,32.7445567 24,33.3888889 C24.0022045,35.3209971 25.6126887,36.8867457 27.6,36.8888889 L28.8,36.8888889 L28.8,38.8333333 C28.8,39.4776655 29.3372583,40 30,40 C30.6627417,40 31.2,39.4776655 31.2,38.8333333 L31.2,36.8888889 L31.6,36.8888889 C34.0300529,36.8888889 36,34.9736625 36,32.6111111 C36,30.2485597 34.0300529,28.3333333 31.6,28.3333333 Z" id="Path-Copy" fill="#999999" fill-rule="nonzero"></path>
    </g>
</svg>