<?xml version="1.0" encoding="UTF-8"?>
<svg width="70px" height="70px" viewBox="0 0 70 70" version="1.1" xmlns="http://www.w3.org/2000/svg" xmlns:xlink="http://www.w3.org/1999/xlink">
    <title>ic/ic_mail</title>
    <g id="ic/ic_mail" stroke="none" stroke-width="1" fill="none" fill-rule="evenodd">
        <g id="1211495" transform="translate(5.000000, 9.000000)" fill="#666666" fill-rule="nonzero">
            <path d="M58,44.1246459 L58,15.0424929 C57.996582,12.2744196 55.7602539,10.0317563 53,10.0283286 L53,3.00849858 C53,1.34706702 51.6567383,0 50,0 L26,0 C24.3432617,0 23,1.34706702 23,3.00849858 L23,6.01699717 L10,6.01699717 C8.34326175,6.01699717 7,7.36406419 7,9.02549575 L7,10.0283286 C4.23974612,10.0317563 2.003418,12.2744196 2,15.0424929 L2,44.1246459 C0.89550775,44.1246459 0,45.0226905 0,46.1303116 L0,47.1331445 C0.003417975,49.9012178 2.23974612,52.1438811 5,52.1473088 L55,52.1473088 C57.7602539,52.1438811 59.996582,49.9012178 60,47.1331445 L60,46.1303116 C60,45.0226905 59.1044922,44.1246459 58,44.1246459 Z M25,3.00849858 C25,2.45468802 25.4477539,2.00566572 26,2.00566572 L50,2.00566572 C50.5522461,2.00566572 51,2.45468802 51,3.00849858 L51,19.0538244 C51,19.6076349 50.5522461,20.0566572 50,20.0566572 L46,20.0566572 C45.7348633,20.0566572 45.4804688,20.1624248 45.2929688,20.3504559 L41,24.655586 L41,21.0594901 C41,20.5056795 40.5522461,20.0566572 40,20.0566572 L37,20.0566572 L37,9.02549575 C37,7.36406419 35.6567382,6.01699717 34,6.01699717 L25,6.01699717 L25,3.00849858 Z M9,9.02549575 C9,8.47168519 9.44775388,8.02266289 10,8.02266289 L34,8.02266289 C34.5522461,8.02266289 35,8.47168519 35,9.02549575 L35,25.0708215 C35,25.6246321 34.5522461,26.0736544 34,26.0736544 L24,26.0736544 C23.4477539,26.0736544 23,26.5226767 23,27.0764873 L23,30.6725832 L18.7070312,26.3674531 C18.5195312,26.1794219 18.2651367,26.0736544 18,26.0736544 L10,26.0736544 C9.44775388,26.0736544 9,25.6246321 9,25.0708215 L9,9.02549575 Z M4,15.0424929 C4,13.3810614 5.34326175,12.0339943 7,12.0339943 L7,25.0708215 C7,26.7322531 8.34326175,28.0793201 10,28.0793201 L17.5859375,28.0793201 L23.2929687,33.8025186 C23.4804687,33.9905498 23.7348632,34.0963173 24,34.0963173 C24.1313476,34.0968069 24.2617187,34.0708547 24.3828125,34.0199296 C24.7563476,33.864706 25,33.4989266 25,33.0934844 L25,28.0793201 L34,28.0793201 C35.6567382,28.0793201 37,26.7322531 37,25.0708215 L37,22.0623229 L39,22.0623229 L39,27.0764873 C39,27.4819294 39.2436524,27.8477088 39.6171875,28.0029325 C39.7382812,28.0538576 39.8686524,28.0798097 40,28.0793201 C40.2651367,28.0793201 40.5195312,27.9735526 40.7070312,27.7855214 L46.4140625,22.0623229 L50,22.0623229 C51.6567382,22.0623229 53,20.7152559 53,19.0538244 L53,12.0339943 C54.6567382,12.0339943 56,13.3810614 56,15.0424929 L56,44.1246459 L4,44.1246459 L4,15.0424929 Z M58,47.1331445 C58,48.794576 56.6567382,50.1416431 55,50.1416431 L5,50.1416431 C3.34326175,50.1416431 2,48.794576 2,47.1331445 L2,46.1303116 L25,46.1303116 C25,47.2379327 25.8955077,48.1359773 27,48.1359773 L33,48.1359773 C34.1044922,48.1359773 35,47.2379327 35,46.1303116 L58,46.1303116 L58,47.1331445 Z" id="Shape"></path>
            <polygon id="Path" points="13 12.0339943 31 12.0339943 31 14.0396601 13 14.0396601"></polygon>
            <polygon id="Path" points="13 16.0453258 31 16.0453258 31 18.0509915 13 18.0509915"></polygon>
            <polygon id="Path" points="13 20.0566572 31 20.0566572 31 22.0623229 13 22.0623229"></polygon>
            <polygon id="Path" points="39 6.01699717 47 6.01699717 47 8.02266289 39 8.02266289"></polygon>
            <polygon id="Path" points="39 10.0283286 47 10.0283286 47 12.0339943 39 12.0339943"></polygon>
            <polygon id="Path" points="39 14.0396601 47 14.0396601 47 16.0453258 39 16.0453258"></polygon>
            <path d="M54,40.1133144 L54,30.0849858 L52,30.0849858 L52,40.1133144 L9,40.1133144 L9,30.0849858 L7,30.0849858 L7,40.1133144 C7,41.2209356 7.89550775,42.1189802 9,42.1189802 L52,42.1189802 C53.1044922,42.1189802 54,41.2209356 54,40.1133144 Z" id="Path"></path>
        </g>
    </g>
</svg>