<?xml version="1.0" encoding="UTF-8"?>
<svg width="60px" height="60px" viewBox="0 0 60 60" version="1.1" xmlns="http://www.w3.org/2000/svg" xmlns:xlink="http://www.w3.org/1999/xlink">
    <title>ic/ic_price</title>
    <g id="ic/ic_price" stroke="none" stroke-width="1" fill="none" fill-rule="evenodd">
        <path d="M31.6,29.3333333 L28.4,29.3333333 C27.2954305,29.3333333 26.4,28.4627759 26.4,27.3888889 C26.4,26.3150019 27.2954305,25.4444444 28.4,25.4444444 L32.4,25.4444444 C33.0624447,25.445141 33.5992835,25.9670677 33.6,26.6111111 C33.6,27.2554433 34.1372583,27.7777777 34.8,27.7777777 C35.4627417,27.7777777 36,27.2554433 36,26.6111111 C35.9977955,24.6790029 34.3873113,23.1132543 32.4,23.1111111 L31.2,23.1111111 L31.2,21.1666667 C31.2,20.5223345 30.6627417,20 30,20 C29.3372583,20 28.8,20.5223345 28.8,21.1666667 L28.8,23.1111111 L28.4,23.1111111 C25.9699471,23.1111111 24,25.0263375 24,27.3888889 C24,29.7514403 25.9699471,31.6666667 28.4,31.6666667 L31.6,31.6666667 C32.7045695,31.6666667 33.6,32.5372241 33.6,33.6111111 C33.6,34.6849981 32.7045695,35.5555556 31.6,35.5555556 L27.6,35.5555556 C26.9375553,35.554859 26.4007165,35.0329323 26.4,34.3888889 C26.4,33.7445567 25.8627417,33.2222222 25.2,33.2222222 C24.5372583,33.2222222 24,33.7445567 24,34.3888889 C24.0022045,36.3209971 25.6126887,37.8867457 27.6,37.8888889 L28.8,37.8888889 L28.8,39.8333333 C28.8,40.4776655 29.3372583,41 30,41 C30.6627417,41 31.2,40.4776655 31.2,39.8333333 L31.2,37.8888889 L31.6,37.8888889 C34.0300529,37.8888889 36,35.9736625 36,33.6111111 C36,31.2485597 34.0300529,29.3333333 31.6,29.3333333 Z" id="Path" fill="#999999" fill-rule="nonzero"></path>
        <circle id="Oval" stroke="#999999" stroke-width="2" cx="30" cy="30" r="18"></circle>
        <path d="M31.6014643,42.6148077 C31.1272377,42.6664233 30.6505049,42.6922955 30.1734127,42.6923077 C23.0939458,42.6923077 17.3343712,36.9985577 17.3343712,30 C17.3343712,23.0014423 23.0939458,17.3076923 30.1734127,17.3076923 C36.1753163,17.279119 41.3868201,21.3875783 42.6942989,27.1784615 C42.8369745,27.7999146 43.4622475,28.1893623 44.0908851,28.0483173 C44.7195227,27.9072723 45.1134727,27.2891454 44.9707971,26.6676923 C43.395537,19.8422261 37.2552084,15.0005958 30.1734127,15 C21.8067346,15 15,21.7289423 15,30 C15,38.2710577 21.8067346,45 30.1734127,45 C30.736165,45 31.2984918,44.9694158 31.857856,44.9084615 C32.2749402,44.8662935 32.6371038,44.6062221 32.806626,44.2271455 C32.9761482,43.8480688 32.9269819,43.4082322 32.6778237,43.0748933 C32.4286654,42.7415544 32.0177985,42.5659309 31.6014643,42.6148077 Z" id="Path" fill="#999999" fill-rule="nonzero"></path>
    </g>
</svg>