<?xml version="1.0" encoding="UTF-8"?>
<svg width="22px" height="22px" viewBox="0 0 22 22" version="1.1" xmlns="http://www.w3.org/2000/svg" xmlns:xlink="http://www.w3.org/1999/xlink">
    <title>ic/ic_search</title>
    <g id="ic/ic_search" stroke="none" stroke-width="1" fill="none" fill-rule="evenodd">
        <path d="M11.0550333,17.6532596 C7.30909497,17.6532596 4.26102702,14.6595829 4.26102702,10.9791535 C4.26102702,7.29872413 7.30909497,4.30396081 11.0550333,4.30396081 C14.8009717,4.30396081 17.8490397,7.29872413 17.8490397,10.9791535 C17.8490397,14.6595829 14.8009717,17.6532596 11.0550333,17.6532596 M11.0616692,3 C8.89063966,3 6.93969922,3.78889629 5.42119512,5.28084478 C3.87282969,6.74997396 3.01348687,8.72221468 3.00021517,10.8378911 C2.98473152,12.9437878 3.8053652,14.9475409 5.31059759,16.4775216 C6.85453912,17.9955493 8.95257428,18.8681164 11.0616692,18.8681164 C11.7197245,18.8681164 12.4010053,18.7572797 13.0590606,18.649703 C14.1274327,18.3878242 15.1128567,17.9270914 15.9003112,17.3196629 L16.0982807,17.1675342 L18.4694918,19.6276736 C18.6597196,19.8591266 18.8842325,19.9840895 19.1198053,19.9971291 C19.3056091,20.0145153 19.4549158,19.9514905 19.5599835,19.8471736 L19.7889203,19.6222404 C19.9802541,19.4342527 20.0090094,19.2310522 19.9979497,19.0930496 C19.983572,18.8876758 19.8762924,18.6964282 19.7037602,18.5703787 L19.669475,18.5399529 L17.2241636,16.0352615 L17.3778942,15.8472739 C19.892882,12.7731863 19.6495675,8.27778137 16.8116348,5.38950818 C15.3041905,3.8019359 13.3709456,3 11.0616692,3" id="icon/search" fill="#999999"></path>
    </g>
</svg>