<?xml version="1.0" encoding="UTF-8"?>
<svg width="60px" height="60px" viewBox="0 0 60 60" version="1.1" xmlns="http://www.w3.org/2000/svg" xmlns:xlink="http://www.w3.org/1999/xlink">
    <title>ic/ic_safty</title>
    <g id="ic/ic_safty" stroke="none" stroke-width="1" fill="none" fill-rule="evenodd">
        <g id="transaction" transform="translate(7.000000, 6.000000)">
            <path d="M20.6014643,31.6148077 C20.1272377,31.6664233 19.6505049,31.6922955 19.1734127,31.6923077 C12.0939458,31.6923077 6.33437119,25.9985577 6.33437119,19 C6.33437119,12.0014423 12.0939458,6.30769231 19.1734127,6.30769231 C25.1753163,6.27911899 30.3868201,10.3875783 31.6942989,16.1784615 C31.8369745,16.7999146 32.4622475,17.1893623 33.0908851,17.0483173 C33.7195227,16.9072723 34.1134727,16.2891454 33.9707971,15.6676923 C32.395537,8.84222607 26.2552084,4.00059577 19.1734127,4 C10.8067346,4 4,10.7289423 4,19 C4,27.2710577 10.8067346,34 19.1734127,34 C19.736165,34 20.2984918,33.9694158 20.857856,33.9084615 C21.2749402,33.8662935 21.6371038,33.6062221 21.806626,33.2271455 C21.9761482,32.8480688 21.9269819,32.4082322 21.6778237,32.0748933 C21.4286654,31.7415544 21.0177985,31.5659309 20.6014643,31.6148077 Z" id="Path" fill="#999999" fill-rule="nonzero"></path>
            <path d="M20.6,18.3333333 L17.4,18.3333333 C16.2954305,18.3333333 15.4,17.4627759 15.4,16.3888889 C15.4,15.3150019 16.2954305,14.4444444 17.4,14.4444444 L21.4,14.4444444 C22.0624447,14.445141 22.5992835,14.9670677 22.6,15.6111111 C22.6,16.2554433 23.1372583,16.7777777 23.8,16.7777777 C24.4627417,16.7777777 25,16.2554433 25,15.6111111 C24.9977955,13.6790029 23.3873113,12.1132543 21.4,12.1111111 L20.2,12.1111111 L20.2,10.1666667 C20.2,9.52233446 19.6627417,9 19,9 C18.3372583,9 17.8,9.52233446 17.8,10.1666667 L17.8,12.1111111 L17.4,12.1111111 C14.9699471,12.1111111 13,14.0263375 13,16.3888889 C13,18.7514403 14.9699471,20.6666667 17.4,20.6666667 L20.6,20.6666667 C21.7045695,20.6666667 22.6,21.5372241 22.6,22.6111111 C22.6,23.6849981 21.7045695,24.5555556 20.6,24.5555556 L16.6,24.5555556 C15.9375553,24.554859 15.4007165,24.0329323 15.4,23.3888889 C15.4,22.7445567 14.8627417,22.2222222 14.2,22.2222222 C13.5372583,22.2222222 13,22.7445567 13,23.3888889 C13.0022045,25.3209971 14.6126887,26.8867457 16.6,26.8888889 L17.8,26.8888889 L17.8,28.8333333 C17.8,29.4776655 18.3372583,30 19,30 C19.6627417,30 20.2,29.4776655 20.2,28.8333333 L20.2,26.8888889 L20.6,26.8888889 C23.0300529,26.8888889 25,24.9736625 25,22.6111111 C25,20.2485597 23.0300529,18.3333333 20.6,18.3333333 Z" id="Path" fill="#999999" fill-rule="nonzero"></path>
            <path d="M41.9491525,30.4979048 L41.9491525,25.5238095 C41.9471164,23.3940144 40.7604705,21.4417904 38.8697034,20.457619 C38.8878178,20.1157143 38.8983051,19.7727619 38.8983051,19.4285714 C38.8983051,8.71561905 30.1734534,0 19.4491525,0 C8.72485169,0 0,8.71561905 0,19.4285714 C0,30.1415238 8.72485169,38.8571429 19.4491525,38.8571429 C21.1222701,38.8584954 22.7885696,38.6441864 24.4067797,38.2195238 L24.4067797,46.8571429 C24.4067797,47.4883254 24.9189963,48 25.5508475,48 L43.8559322,48 C44.4877834,48 45,47.4883254 45,46.8571429 L45,33.9047619 C44.9977171,32.1595944 43.6851253,30.6938336 41.9491525,30.4979048 Z M39.6610171,25.5238095 L39.6610171,30.4761905 L35.4475106,30.4761905 C37.0005517,28.2359465 38.0628885,25.6935472 38.5650953,23.0151429 C39.2641592,23.6624414 39.6613407,24.5716269 39.6610171,25.5238095 Z M29.7457627,30.4761905 L29.7457627,25.5238095 C29.7478644,23.6311321 31.2832837,22.0973376 33.1779661,22.0952381 L36.2288136,22.0952381 C36.2865254,22.0952381 36.3438877,22.0966984 36.4009004,22.099619 C35.9150694,25.1893498 34.5899375,28.0867051 32.5697987,30.4761905 L29.7457627,30.4761905 Z M19.4491525,36.571438 C9.9865678,36.571438 2.28813559,28.8811429 2.28813559,19.4285714 C2.28813559,9.976 9.9865678,2.28571429 19.4491525,2.28571429 C28.9117373,2.28571429 36.6101695,9.976 36.6101695,19.4285714 C36.6101695,19.5603175 36.6086758,19.6919048 36.6056886,19.8233333 C36.4809852,19.8151429 36.3555191,19.8095238 36.2288136,19.8095238 L33.1779661,19.8095238 C30.0201912,19.8130928 27.4611999,22.3693762 27.4576271,25.5238095 L27.4576271,30.4979048 C25.7216544,30.6938336 24.4090626,32.1595944 24.4067797,33.9047619 L24.4067797,35.8446667 C22.7988231,36.3283202 21.1284196,36.5731925 19.4491525,36.571438 Z M42.7118644,45.7142857 L26.6949153,45.7142857 L26.6949153,33.9047619 C26.6955983,33.2738622 27.207415,32.7625871 27.8389831,32.7619048 L41.5677966,32.7619048 C42.1993646,32.7625871 42.7111813,33.2738622 42.7118644,33.9047619 L42.7118644,45.7142857 Z" id="Shape" fill="#999999" fill-rule="nonzero"></path>
            <path d="M37.9090909,37 L32.0909091,37 C31.4884166,37 31,37.4477153 31,38 C31,38.5522847 31.4884166,39 32.0909091,39 L33.9090909,39 L33.9090909,42 C33.9090909,42.5522847 34.3975075,43 35,43 C35.6024925,43 36.0909091,42.5522847 36.0909091,42 L36.0909091,39 L37.9090909,39 C38.5115834,39 39,38.5522847 39,38 C39,37.4477153 38.5115834,37 37.9090909,37 L37.9090909,37 Z" id="Path" fill="#FF4C4C" fill-rule="nonzero"></path>
            <path d="M33.26,22 L36.16,22 C38.0929966,22 39.66,23.5670034 39.66,25.5 L39.66,30.5 L39.66,30.5 L29.76,30.5 L29.76,25.5 C29.76,23.5670034 31.3270034,22 33.26,22 Z" id="Rectangle" fill="#FFFFFF"></path>
        </g>
    </g>
</svg>