<?xml version="1.0" encoding="UTF-8"?>
<svg width="70px" height="70px" viewBox="0 0 70 70" version="1.1" xmlns="http://www.w3.org/2000/svg" xmlns:xlink="http://www.w3.org/1999/xlink">
    <title>ic/ic_social</title>
    <g id="ic/ic_social" stroke="none" stroke-width="1" fill="none" fill-rule="evenodd">
        <g id="review" transform="translate(5.000000, 4.000000)" fill="#666666" fill-rule="nonzero">
            <path d="M54.4472656,9.55825071 L52.6601562,9.55825071 L52.6601562,5.37651602 C52.6601562,2.41190509 50.2550645,0 47.2988281,0 C44.3425918,0 41.9375,2.41190509 41.9375,5.37651602 L41.9375,6.8443049 C41.9375,8.70147301 40.6939102,10.3549309 38.9131152,10.8651025 L37.171875,11.3640432 L37.171875,11.3504227 C37.171875,10.3606659 36.3717266,9.55825071 35.3847656,9.55825071 L28.2363281,9.55825071 C27.2493672,9.55825071 26.4492188,10.3606659 26.4492188,11.3504227 L26.4492188,19.3554577 L5.36132812,19.3554577 C2.4050918,19.3554577 0,21.7673628 0,24.7319737 L0,59.3806325 C0,60.0415856 0.362783203,60.6488929 0.943832031,60.9607308 C1.20808594,61.1026709 1.49783594,61.1728045 1.78699023,61.1728045 C2.13368945,61.1728045 2.47943555,61.071726 2.77835937,60.8717196 L9.47668359,56.3936792 L43.4863281,56.3936792 C46.4425645,56.3936792 48.8476562,53.9817741 48.8476562,51.0171632 L48.8476562,32.2590961 L54.4472656,32.2590961 C58.0604434,32.2590961 61,29.3112121 61,25.6877988 L61,16.1295481 C61,12.5061347 58.0604434,9.55825071 54.4472656,9.55825071 Z M28.8105469,11.8831777 L34.8105469,11.8831777 L34.8105469,29.9341692 L28.8105469,29.9341692 L28.8105469,11.8831777 Z M46.6169434,52.0502042 C46.6169434,53.0929326 45.7710119,53.9412604 44.7312291,53.9412604 L8.2109375,54.0637817 C7.8386975,54.0637817 7.47475464,54.1743455 7.16499464,54.3814792 C5.04166882,55.8606988 3.48638578,56.9303164 2.49914551,57.590332 C2.46167467,57.615383 2.38643875,57.5325249 2.27343775,57.3417578 L2.27343775,24.3147125 C2.27343775,23.271984 3.11936918,21.8086767 4.15915204,21.8086767 L26.4105806,21.8086767 L26.4105806,30.3660925 C26.4105806,31.4104598 27.2548777,32.2571487 28.2962949,32.2571487 L35.839152,32.2571487 C36.8079063,32.2571487 37.6051863,31.5241753 37.711792,30.5812947 C39.391712,31.6556668 41.3669349,32.2571487 43.4211063,32.2571487 L46.6169434,32.2571487 L46.6169434,52.0502042 Z M58.6004464,26.4346071 C58.6004464,28.2119851 57.1490935,29.6579984 55.3651523,29.6579984 L42.4642229,29.6579984 C40.1040111,29.6579984 37.8997405,28.4716615 36.6004464,26.5318245 L36.6004464,13.4535317 L39.5582817,12.6115819 C43.0321234,11.6226894 44.4535456,10.4537501 44.6119385,6.97759647 C44.6173357,6.85914759 44.6119385,6.2221711 44.6119385,6.09952046 L44.6119385,4.51554596 C44.6119385,3.44911917 45.8186035,2.51436764 47.6004464,2.51436764 C49.3822893,2.51436764 50.3933105,3.21352346 50.3933105,4.27995025 L50.3933105,9.86104733 C50.3933105,10.9291503 50.9626209,12.0306778 52.034668,12.0306778 L55.3651523,12.0306778 C57.1490935,12.0306778 58.6004464,14.3423768 58.6004464,16.1197548 L58.6004464,26.4346071 Z" id="Shape"></path>
            <path d="M8.73076923,32.0906516 L20.2692308,32.0906516 C21.2250769,32.0906516 22,31.6416499 22,31.0878187 C22,30.5339875 21.2250769,30.0849858 20.2692308,30.0849858 L8.73076923,30.0849858 C7.77492308,30.0849858 7,30.5339875 7,31.0878187 C7,31.6416499 7.77492308,32.0906516 8.73076923,32.0906516 Z" id="Path"></path>
            <path d="M40.1896552,37.1048159 L8.81034483,37.1048159 C7.81055172,37.1048159 7,37.5538176 7,38.1076487 C7,38.6614799 7.81055172,39.1104816 8.81034483,39.1104816 L40.1896552,39.1104816 C41.1894483,39.1104816 42,38.6614799 42,38.1076487 C42,37.5538176 41.1894483,37.1048159 40.1896552,37.1048159 Z" id="Path"></path>
            <path d="M40.1896552,45.1274788 L8.81034483,45.1274788 C7.81055172,45.1274788 7,45.5764805 7,46.1303116 C7,46.6841428 7.81055172,47.1331445 8.81034483,47.1331445 L40.1896552,47.1331445 C41.1894483,47.1331445 42,46.6841428 42,46.1303116 C42,45.5764805 41.1894483,45.1274788 40.1896552,45.1274788 Z" id="Path"></path>
        </g>
    </g>
</svg>